<svg width="28" height="33" viewBox="0 0 28 33" fill="none" xmlns="http://www.w3.org/2000/svg">
<path d="M6.52 33H3.52C3.35175 32.997 3.18699 32.9516 3.04097 32.8679C2.89494 32.7843 2.77238 32.6652 2.68464 32.5216C2.59689 32.378 2.5468 32.2146 2.53899 32.0465C2.53119 31.8784 2.56593 31.7111 2.64 31.56L8.55 20H2C1.81978 20.0015 1.64251 19.9543 1.48693 19.8633C1.33134 19.7724 1.20324 19.641 1.11615 19.4833C1.02906 19.3255 0.98623 19.1471 0.992189 18.967C0.998148 18.7868 1.05267 18.6117 1.15 18.46L11.83 1.46C11.9176 1.32335 12.037 1.21007 12.1782 1.12993C12.3193 1.04978 12.4778 1.00519 12.64 1H26.07C26.2697 0.990553 26.4676 1.04117 26.6382 1.14532C26.8089 1.24946 26.9444 1.40236 27.0273 1.58427C27.1101 1.76618 27.1366 1.96876 27.1032 2.16585C27.0698 2.36295 26.9782 2.54552 26.84 2.69L17.78 13H23.16C23.3505 13.004 23.5358 13.0624 23.6943 13.1682C23.8527 13.274 23.9776 13.4228 24.0543 13.5972C24.131 13.7716 24.1563 13.9643 24.1272 14.1526C24.0981 14.3409 24.0158 14.5169 23.89 14.66L7.26 32.66C7.16741 32.7654 7.05367 32.8502 6.92618 32.9087C6.79869 32.9673 6.6603 32.9984 6.52 33V33ZM5.18 31H6.09L20.86 15H15.59C15.3903 15.0094 15.1924 14.9588 15.0218 14.8547C14.8511 14.7505 14.7156 14.5976 14.6327 14.4157C14.5499 14.2338 14.5234 14.0312 14.5568 13.8341C14.5902 13.637 14.6818 13.4545 14.82 13.31L23.88 3H13.19L3.77 18H10.2C10.3682 18.003 10.533 18.0484 10.679 18.1321C10.8251 18.2157 10.9476 18.3348 11.0354 18.4784C11.1231 18.622 11.1732 18.7854 11.181 18.9535C11.1888 19.1216 11.1541 19.2889 11.08 19.44L5.18 31Z" fill="#FC0E0E"/>
</svg>
